<?xml version="1.0" encoding="iso-8859-1"?>
<!-- Generator: Adobe Illustrator 18.0.0, SVG Export Plug-In . SVG Version: 6.00 Build 0)  -->
<!DOCTYPE svg PUBLIC "-//W3C//DTD SVG 1.1//EN" "http://www.w3.org/Graphics/SVG/1.1/DTD/svg11.dtd">
<svg version="1.1" id="Capa_1" xmlns="http://www.w3.org/2000/svg" xmlns:xlink="http://www.w3.org/1999/xlink" x="0px" y="0px"
	 viewBox="0 0 488.1 488.1" style="enable-background:new 0 0 488.1 488.1;" xml:space="preserve">
<path d="M485.024,299.296l-60.268-60.266c-1.969-1.969-4.64-3.075-7.424-3.075h-31.141v-57.57c0-15.02-12.221-27.241-27.242-27.241
	h-23.618c-9.628-34.709-29.267-64.224-57.078-85.643c-29.226-22.509-65.456-34.486-104.826-34.682
	c-0.123-0.001-0.245-0.009-0.368-0.009c-0.061,0-0.12,0.004-0.181,0.004c-0.142,0-0.283-0.004-0.425-0.004
	C77.363,30.811,0,108.173,0,203.265C0,234.403,7.992,264.823,23.112,291.237c14.184,24.778,34.307,45.503,58.33,60.172v24.511
	c0,11.96,7.751,22.137,18.491,25.791c4.169,31.327,31.043,55.579,63.492,55.579c31.948,0,58.505-23.505,63.297-54.129h79.88
	c4.793,30.624,31.35,54.129,63.298,54.129c31.948,0,58.504-23.505,63.296-54.129h27.663c15.021,0,27.241-12.221,27.241-27.241
	v-69.198C488.1,303.936,486.994,301.265,485.024,299.296z M412.983,256.955l39.268,39.268h-66.06v-39.268H412.983z M365.191,178.385
	v150.953c-29.433,2.15-53.397,24.258-58.39,52.822h-80.28c-5.257-30.075-31.54-53.014-63.098-53.014
	c-28.482,0-52.671,18.686-60.982,44.438V178.385c0-3.441,2.8-6.241,6.241-6.241H358.95
	C362.392,172.144,365.191,174.944,365.191,178.385z M48.613,116.177h53.839c-3.334,12.263-5.91,25.31-7.615,38.761
	c-8.01,4.749-13.396,13.479-13.396,23.447v14.38H21.37C23.323,164.391,33.122,138.142,48.613,116.177z M173.27,51.819
	c11.463,0.198,27.188,16.66,38.781,43.358H131.79c1.923-4.504,3.973-8.776,6.144-12.772c10.678-19.646,23.092-30.499,34.974-30.591
	C173.029,51.816,173.149,51.818,173.27,51.819z M124.272,116.177h95.321c3.119,10.708,5.516,22.442,6.854,34.967H116.554
	C118.394,138.887,121.006,127.119,124.272,116.177z M119.483,72.378c-3.774,6.943-7.214,14.603-10.29,22.799H66.479
	c17.13-16.798,38.218-29.57,61.723-36.766C125.173,62.608,122.262,67.266,119.483,72.378z M247.54,151.144
	c-1.164-11.938-3.255-23.69-6.192-34.967h55.618c6.872,10.593,12.42,22.299,16.458,34.967H247.54z M280.234,95.177h-45.542
	c-3.181-8.414-6.856-16.403-11.001-23.796c-2.922-5.211-5.977-9.948-9.137-14.205C240.218,63.987,262.654,77.071,280.234,95.177z
	 M21.353,213.765h60.089v112.321C46.507,300.039,24.348,258.832,21.353,213.765z M163.424,436.289
	c-23.75,0-43.072-19.321-43.072-43.071s19.322-43.071,43.072-43.071s43.072,19.321,43.072,43.071S187.174,436.289,163.424,436.289z
	 M369.9,436.289c-23.751,0-43.073-19.321-43.073-43.071s19.322-43.071,43.073-43.071c23.75,0,43.071,19.321,43.071,43.071
	S393.649,436.289,369.9,436.289z M460.859,382.16h-27.862c-4.319-24.711-22.83-44.6-46.805-50.908v-14.029H467.1v58.696
	C467.1,379.361,464.3,382.16,460.859,382.16z"/>
<g>
</g>
<g>
</g>
<g>
</g>
<g>
</g>
<g>
</g>
<g>
</g>
<g>
</g>
<g>
</g>
<g>
</g>
<g>
</g>
<g>
</g>
<g>
</g>
<g>
</g>
<g>
</g>
<g>
</g>
</svg>
